<?xml version="1.0" standalone="no"?>
<!DOCTYPE svg PUBLIC "-//W3C//DTD SVG 20010904//EN"
 "http://www.w3.org/TR/2001/REC-SVG-20010904/DTD/svg10.dtd">
<svg version="1.0" xmlns="http://www.w3.org/2000/svg"
 width="600.000000pt" height="600.000000pt" viewBox="0 0 600.000000 600.000000"
 preserveAspectRatio="xMidYMid meet">
<metadata>
Created by potrace 1.14, written by Peter Selinger 2001-2017
</metadata>
<g transform="translate(0.000000,600.000000) scale(0.100000,-0.100000)"
fill="#000000" stroke="none">
<path d="M3870 5990 c0 -15 -99 -60 -131 -60 -29 0 -117 -28 -136 -43 -21 -16
-4 -27 40 -27 42 0 332 83 355 102 6 6 12 17 12 24 0 11 -17 14 -70 14 -42 0
-70 -4 -70 -10z"/>
<path d="M3318 5898 c14 -14 112 -23 149 -13 26 7 26 8 8 15 -11 5 -54 9 -94
9 -57 1 -72 -2 -63 -11z"/>
<path d="M2935 5849 c-126 -21 -276 -113 -310 -189 -10 -22 -33 -53 -51 -70
-19 -16 -36 -43 -40 -58 -3 -15 -15 -53 -25 -85 -22 -66 -20 -142 8 -302 14
-79 28 -145 90 -424 7 -35 25 -83 38 -106 25 -42 34 -105 15 -105 -6 0 -24 7
-41 15 -50 26 -64 4 -28 -44 29 -40 15 -61 -64 -99 -37 -17 -74 -43 -86 -61
-24 -34 -60 -41 -81 -16 -20 25 -29 17 -23 -20 5 -33 1 -40 -49 -90 -42 -42
-62 -55 -85 -55 -24 0 -33 -6 -43 -29 -12 -30 -86 -103 -183 -181 -36 -29 -58
-55 -63 -74 -3 -16 -28 -51 -54 -76 -26 -26 -57 -65 -68 -87 -12 -22 -32 -54
-46 -70 -14 -17 -35 -52 -46 -79 -12 -26 -43 -93 -70 -148 -53 -110 -56 -127
-66 -337 -5 -104 -2 -165 11 -256 9 -66 15 -133 13 -149 l-3 -29 -230 -11
c-270 -13 -382 -35 -650 -127 -124 -42 -151 -55 -137 -69 13 -13 85 -5 138 15
22 9 69 20 105 26 35 5 94 19 132 30 84 25 335 61 425 61 37 0 104 5 150 12
75 10 84 9 102 -7 11 -10 20 -25 20 -33 0 -27 105 -215 146 -261 23 -25 48
-60 57 -77 19 -36 114 -135 161 -166 18 -13 53 -36 77 -53 24 -16 63 -46 85
-66 23 -20 69 -47 104 -60 34 -12 64 -29 68 -37 9 -24 -34 -52 -69 -45 -18 3
-46 -2 -76 -15 -27 -11 -70 -23 -98 -27 -67 -9 -115 -24 -147 -46 -14 -11 -38
-19 -53 -19 -14 0 -40 -7 -58 -16 -23 -12 -70 -18 -184 -22 l-152 -5 -39 -46
c-55 -65 -64 -85 -52 -115 5 -15 17 -26 28 -26 22 0 52 30 52 52 0 9 8 26 18
38 21 26 57 31 196 31 58 0 98 5 117 14 15 8 39 15 53 15 14 0 37 11 52 25 15
14 38 25 51 25 13 0 49 9 81 19 31 11 75 22 97 26 22 3 99 24 171 47 l131 41
97 -32 c54 -17 117 -31 140 -31 24 0 63 -8 87 -19 46 -19 87 -20 387 -6 132 6
147 1 122 -44 -8 -16 -6 -29 9 -60 11 -21 23 -63 25 -92 4 -41 11 -59 28 -73
20 -16 23 -27 24 -95 0 -43 10 -113 22 -161 32 -125 46 -313 28 -376 -58 -200
-57 -198 -123 -253 -88 -73 -173 -116 -298 -152 -122 -35 -148 -35 -330 3
-107 22 -177 52 -211 90 -50 56 -33 88 43 81 65 -6 183 28 250 72 61 40 97 90
114 157 34 128 -78 326 -217 384 -21 9 -53 28 -73 42 -74 57 -248 23 -389 -76
-54 -38 -69 -56 -105 -126 -41 -79 -42 -83 -42 -181 0 -91 3 -105 29 -155 70
-135 179 -245 303 -308 129 -67 264 -99 441 -105 176 -7 307 20 449 93 144 74
255 210 276 337 17 104 14 296 -5 383 -27 120 -38 181 -48 245 -4 33 -16 98
-25 145 -9 47 -20 103 -24 125 -4 22 -14 57 -21 78 -10 27 -11 43 -4 55 6 9
58 33 116 52 68 22 131 52 175 82 132 88 160 98 250 91 54 -4 93 -1 119 8 21
7 71 14 109 15 119 3 236 21 252 37 37 37 -27 65 -80 35 -13 -8 -67 -13 -137
-14 -63 -1 -133 -5 -155 -9 -28 -4 -46 -2 -60 8 -19 15 -18 17 28 74 76 92
117 190 128 303 5 52 11 103 13 114 3 10 -2 39 -10 63 -11 31 -13 61 -9 94 6
45 4 51 -27 88 -32 38 -68 118 -68 153 0 26 -267 295 -325 327 -27 15 -87 49
-131 74 -45 26 -91 47 -102 47 -10 0 -31 9 -45 20 -18 14 -39 20 -69 19 -63
-2 -311 32 -325 45 -10 10 -25 63 -54 194 -12 55 -12 149 1 157 5 3 24 -2 41
-11 22 -11 44 -14 73 -10 22 4 83 7 133 9 83 2 94 4 108 24 l16 23 36 -20 c27
-14 41 -16 61 -9 14 5 44 9 66 9 23 -1 55 2 71 7 18 6 47 6 75 0 45 -10 57
-11 185 -2 312 20 355 21 416 12 52 -8 86 -7 150 5 64 12 142 15 324 13 136
-2 260 1 285 7 25 5 86 9 135 9 119 -1 234 37 163 54 -28 7 -66 7 -243 2 -77
-2 -264 -7 -415 -11 -151 -4 -323 -11 -381 -17 -66 -6 -177 -6 -300 0 -107 5
-228 10 -269 10 -41 1 -93 2 -115 2 -22 1 -85 -4 -140 -10 -114 -13 -108 -13
-275 -9 -83 1 -141 -2 -174 -12 -47 -13 -50 -12 -67 9 -14 17 -17 36 -15 85 2
56 7 68 39 107 21 24 59 63 86 86 29 25 54 57 61 78 11 33 14 35 55 35 37 0
44 3 49 25 6 24 121 145 168 177 26 18 90 101 142 183 20 33 26 53 22 71 -13
50 -58 40 -69 -16 -5 -23 -18 -35 -58 -55 -28 -15 -53 -24 -55 -22 -6 6 33 75
57 102 10 12 34 52 53 90 40 82 62 113 72 103 4 -4 1 -14 -5 -22 -18 -21 -10
-97 11 -110 13 -8 23 -5 42 13 35 33 43 81 20 119 -17 29 -17 32 1 59 15 23
19 50 21 153 2 108 -1 135 -22 199 -13 40 -24 86 -24 101 0 15 -9 39 -20 53
-11 14 -23 47 -26 74 -7 49 -27 83 -50 83 -7 0 -32 16 -56 35 -169 138 -235
171 -377 186 -96 10 -88 10 -156 -2z m189 -183 c51 -21 114 -83 167 -164 l48
-73 -4 -88 c-3 -77 -7 -95 -35 -145 -18 -31 -45 -64 -61 -73 -15 -9 -39 -37
-51 -62 -79 -158 -333 -444 -388 -439 -23 3 -26 9 -37 78 -7 41 -24 136 -38
210 -13 74 -28 171 -31 215 -4 44 -15 109 -25 145 -34 116 -21 182 51 264 95
108 301 175 404 132z m356 -132 c11 -29 6 -44 -16 -44 -9 0 -14 11 -14 35 0
41 16 46 30 9z m-30 -240 c0 -8 -7 -14 -15 -14 -15 0 -21 21 -9 33 10 9 24 -2
24 -19z m26 -109 c3 -8 -2 -38 -11 -67 -10 -29 -19 -59 -21 -65 -4 -16 -40
-17 -49 -2 -12 18 5 96 26 123 23 29 47 34 55 11z m114 -135 c0 -16 -26 -40
-44 -40 -12 0 -6 24 11 42 21 23 33 23 33 -2z m-296 -32 c16 -61 -3 -87 -38
-53 -15 15 -12 38 7 63 14 18 24 15 31 -10z m16 -168 c0 -48 -9 -60 -46 -60
-30 0 -34 -4 -43 -37 -23 -92 -24 -121 -2 -149 28 -35 26 -52 -5 -65 -15 -5
-40 -21 -56 -34 -16 -14 -36 -25 -44 -25 -8 0 -20 -12 -27 -27 -27 -61 -148
-156 -170 -134 -7 7 1 22 26 46 20 20 37 40 37 45 0 18 53 70 71 70 10 0 26
12 36 26 9 15 32 33 50 40 38 16 43 42 17 94 -16 31 -16 36 0 80 12 34 15 61
10 99 -8 58 4 66 43 29 l24 -22 31 31 c36 36 48 34 48 -7z m65 -311 c19 -30
-38 -95 -72 -82 -21 8 -15 25 19 60 34 35 43 39 53 22z m-305 -246 c0 -23 -84
-113 -105 -113 -8 0 -15 5 -15 10 0 17 30 70 39 70 4 0 14 11 21 25 16 30 60
35 60 8z m-230 -383 c19 -35 3 -57 -54 -75 -66 -21 -111 -17 -111 9 0 10 9 24
20 30 11 6 35 21 55 34 43 27 76 28 90 2z m18 -155 c1 -16 9 -46 16 -65 23
-58 45 -152 51 -217 7 -73 -7 -95 -76 -113 -23 -6 -84 -32 -137 -58 -77 -38
-111 -62 -171 -122 -138 -138 -206 -252 -220 -367 -5 -48 -10 -55 -41 -72 -43
-23 -48 -43 -15 -61 16 -9 41 -45 70 -104 144 -289 185 -337 402 -463 116 -67
153 -72 153 -25 0 24 -7 32 -42 48 -56 24 -176 112 -216 158 -71 81 -103 189
-72 246 7 13 9 37 5 60 -5 28 -1 48 14 77 27 55 44 66 84 59 21 -4 50 0 78 10
24 9 80 20 124 24 44 5 96 11 116 15 49 10 69 -12 69 -74 0 -27 10 -73 25
-108 13 -33 40 -134 60 -224 41 -189 59 -263 82 -336 14 -48 14 -55 -1 -78
-18 -27 -105 -58 -159 -55 -17 1 -40 2 -49 1 -27 -2 -22 -38 7 -57 29 -19 85
-15 161 11 51 17 70 12 78 -20 9 -34 -2 -54 -33 -61 -14 -4 -41 -15 -59 -26
-27 -17 -37 -18 -64 -9 -20 7 -60 9 -103 5 -58 -5 -79 -2 -123 15 -29 12 -64
21 -78 21 -15 0 -40 12 -57 26 -21 18 -37 23 -51 19 -12 -4 -45 -9 -73 -12
-43 -4 -63 -1 -105 20 -29 13 -82 38 -118 55 -110 52 -243 148 -327 235 -63
66 -90 103 -126 178 -99 205 -112 297 -37 283 17 -4 42 2 66 14 21 11 64 22
95 26 70 9 126 40 109 61 -15 18 -87 20 -127 4 -15 -6 -64 -18 -108 -26 -115
-20 -116 -18 -86 187 5 30 14 71 21 90 7 19 19 51 26 70 7 19 15 49 19 65 3
17 21 55 40 85 18 30 41 74 50 98 12 29 32 52 62 73 24 17 55 47 68 67 29 44
128 132 204 183 61 40 111 85 111 99 0 5 16 21 36 36 46 36 147 56 203 41 33
-9 46 -8 73 6 18 9 47 15 63 14 25 -2 30 -7 33 -32z m351 -780 c17 -8 52 -13
88 -12 66 1 113 -20 113 -52 0 -16 -12 -19 -105 -24 -57 -4 -110 -4 -118 -2
-12 5 -47 56 -47 68 0 7 30 37 36 37 3 0 18 -7 33 -15z m-193 -32 c25 -58 9
-80 -63 -87 -32 -3 -95 -13 -139 -21 -101 -19 -114 -19 -114 0 0 8 32 31 71
52 40 21 95 50 123 65 73 40 103 37 122 -9z m622 -165 c77 -71 105 -113 151
-222 39 -94 50 -204 32 -312 -10 -60 -22 -87 -71 -163 -67 -103 -90 -116 -147
-86 -31 17 -36 17 -68 2 -50 -24 -151 -48 -170 -41 -22 9 -37 49 -29 79 3 13
-6 61 -22 112 -15 48 -30 126 -34 173 -6 73 -31 219 -72 416 -6 29 -8 56 -5
61 4 6 41 13 84 18 43 4 110 10 148 15 136 14 129 16 203 -52z m-78 -878 c0
-12 -41 -50 -54 -50 -6 0 -22 -9 -36 -20 -36 -28 -78 -26 -92 5 -16 36 10 59
87 78 58 14 95 9 95 -13z"/>
<path d="M3017 5183 c-13 -12 -7 -21 23 -33 34 -14 63 0 53 26 -5 14 -64 20
-76 7z"/>
<path d="M2736 3718 c-10 -6 -53 -14 -95 -19 -147 -16 -204 -40 -173 -71 8 -8
34 -5 94 10 46 11 112 26 148 32 106 19 110 20 110 34 0 25 -50 34 -84 14z"/>
<path d="M2080 2543 c-32 -13 -69 -48 -70 -65 0 -16 59 15 90 47 37 38 33 41
-20 18z"/>
<path d="M2726 2331 c-3 -5 1 -14 8 -20 16 -13 32 2 21 19 -8 12 -22 13 -29 1z"/>
<path d="M2347 2323 c-13 -12 -7 -53 7 -53 20 0 39 27 32 45 -6 15 -28 20 -39
8z"/>
<path d="M2213 2133 c-7 -2 -9 -11 -6 -19 7 -18 43 -18 43 0 0 16 -19 25 -37
19z"/>
<path d="M3696 2494 c-8 -31 -3 -39 19 -31 19 8 20 57 1 57 -8 0 -17 -12 -20
-26z"/>
<path d="M4880 5285 c0 -29 21 -36 90 -33 25 2 56 -1 69 -6 18 -6 22 -5 19 5
-3 8 -9 14 -14 15 -5 0 -29 10 -54 22 -25 12 -60 22 -77 22 -28 0 -33 -3 -33
-25z"/>
<path d="M5242 5172 c-7 -2 -12 -10 -12 -18 0 -9 4 -13 9 -9 5 3 12 1 16 -5 3
-5 22 -10 42 -10 35 0 35 1 19 19 -18 19 -53 30 -74 23z"/>
<path d="M5346 5116 c9 -32 40 -53 85 -61 50 -9 64 6 43 46 -16 32 -38 41 -93
37 -36 -2 -40 -4 -35 -22z"/>
<path d="M4040 5057 c0 -21 -55 -47 -102 -47 -46 0 -88 -22 -88 -45 0 -25 43
-42 121 -49 78 -6 128 -23 265 -92 40 -21 80 -34 90 -31 11 3 31 8 47 11 28 7
38 36 12 36 -22 0 -84 37 -139 84 -28 22 -52 39 -55 37 -3 -2 -10 5 -16 15 -5
11 -11 21 -13 24 -2 2 -7 -2 -12 -10 -8 -13 -10 -13 -10 0 0 18 -29 45 -59 55
-12 3 -21 11 -21 16 0 5 -4 9 -10 9 -5 0 -10 -6 -10 -13z m60 -77 c13 -9 13
-12 -4 -25 -21 -16 -58 -1 -49 22 6 15 32 17 53 3z"/>
<path d="M4505 4840 c-5 -8 19 -26 82 -63 16 -10 43 2 43 19 0 23 -55 45 -84
34 -24 -9 -30 -6 -27 13 1 10 -7 9 -14 -3z"/>
<path d="M4215 4530 c-8 -12 20 -24 35 -15 5 3 10 10 10 16 0 12 -37 12 -45
-1z"/>
<path d="M5870 4430 c0 -5 9 -10 21 -10 11 0 17 5 14 10 -3 6 -13 10 -21 10
-8 0 -14 -4 -14 -10z"/>
<path d="M4290 4414 c-10 -11 -9 -14 8 -14 25 0 37 16 18 23 -8 3 -20 -1 -26
-9z"/>
<path d="M3860 4330 c0 -5 4 -10 9 -10 6 0 13 5 16 10 3 6 -1 10 -9 10 -9 0
-16 -4 -16 -10z"/>
<path d="M3625 4048 c-4 -10 -4 -26 0 -35 6 -17 7 -17 16 0 7 11 7 23 0 35 -9
16 -10 16 -16 0z"/>
<path d="M1793 3903 c-23 -9 -13 -23 16 -23 35 0 61 9 61 21 0 9 -56 11 -77 2z"/>
<path d="M5560 3891 c0 -13 37 -24 50 -16 6 4 8 11 5 16 -8 12 -55 12 -55 0z"/>
<path d="M5703 3893 c-7 -3 -13 -9 -13 -14 0 -12 47 -12 54 0 7 10 -23 20 -41
14z"/>
<path d="M5406 3881 c-7 -11 37 -23 58 -15 9 3 16 10 16 15 0 12 -67 12 -74 0z"/>
<path d="M1465 3869 c-142 -23 -187 -30 -259 -40 -44 -5 -83 -12 -87 -15 -14
-8 -94 -23 -346 -64 -28 -4 -66 -13 -85 -19 -190 -60 -286 -72 -408 -48 -65
13 -80 13 -109 1 -18 -8 -59 -14 -91 -14 -44 0 -59 -4 -64 -16 -9 -24 -7 -72
3 -78 14 -9 79 -8 371 8 47 2 125 14 175 26 55 13 104 20 126 16 28 -4 51 1
95 21 39 18 100 32 188 45 72 10 148 25 169 33 20 8 62 15 92 15 29 0 57 5 61
11 6 10 29 9 134 -5 53 -8 92 8 100 42 3 12 20 31 38 42 68 41 20 60 -103 39z"/>
<path d="M3530 3640 c-6 -11 -14 -43 -17 -71 -4 -32 -15 -61 -30 -79 -27 -33
-31 -63 -6 -58 24 4 86 134 87 182 1 44 -17 58 -34 26z"/>
<path d="M4114 2946 c-15 -11 -15 -13 -1 -19 18 -7 57 2 57 13 0 14 -39 18
-56 6z"/>
<path d="M4392 2949 c18 -7 33 -7 45 0 14 8 9 10 -27 10 -42 -1 -43 -1 -18
-10z"/>
<path d="M4660 2726 c0 -10 28 -13 41 -5 10 6 7 9 -13 9 -16 0 -28 -2 -28 -4z"/>
<path d="M392 2384 c-12 -8 -22 -19 -22 -25 0 -17 39 -9 50 10 19 36 9 41 -28
15z"/>
<path d="M4787 2034 c-9 -10 2 -24 19 -24 8 0 14 7 14 15 0 15 -21 21 -33 9z"/>
<path d="M1568 2001 c-8 -12 -18 -18 -22 -14 -11 11 -50 11 -61 -1 -6 -6 -19
-38 -29 -71 -10 -33 -25 -72 -32 -87 -23 -43 -18 -65 17 -77 51 -18 68 -14 75
16 5 18 1 37 -10 57 -17 30 -17 31 3 47 12 10 21 22 21 28 0 6 9 15 20 21 11
6 19 14 19 18 -1 4 -1 18 1 32 1 22 2 23 9 6 7 -19 8 -18 14 4 9 33 -7 46 -25
21z"/>
<path d="M3698 1756 c-15 -35 -4 -56 31 -56 24 0 32 5 37 25 9 36 -2 55 -31
55 -17 0 -29 -8 -37 -24z"/>
<path d="M3680 1579 c-16 -28 -5 -66 21 -74 46 -15 68 51 27 79 -29 21 -35 20
-48 -5z"/>
</g>
</svg>
